#!OML:ASF I:\Actors\actors\Patient Classification 2\Patient 1\Session 1\actor1.ASF
:FULLY-SPECIFIED
:DEGREES
192
root -0.949575 18.2479 5.71531 2.18104 2.19548 -6.19701
lowerback 7.30487 1.30041 -0.549171
upperback -0.420677 1.62253 -1.35358
thorax -4.51002 0.800199 -1.27394
lowerneck -15.6293 -1.36359 -2.62962
upperneck 29.5697 -1.08324 -0.162572
head 12.39 -0.792534 0.229545
rclavicle 1.96797e-014 1.11319e-014
rhumerus -9.29884 22.4196 -74.0545
rradius 96.3182
rwrist -11.6804
rhand -5.03509 -38.171
rfingers 7.12502
rthumb 20.7597 -67.0806
lclavicle 1.96797e-014 1.11319e-014
lhumerus -3.99049 -33.0828 89.2724
lradius 89.5409
lwrist 24.0797
lhand -23.6232 -30.3547
lfingers 7.12502
lthumb 2.84125 -0.393878
rfemur 0 0 0
rtibia 0
rfoot 0 0
rtoes 0
lfemur 14.7492 -8.25048 -10.1077
ltibia -19.9966
lfoot -0.731508 18.4333
ltoes -10.6954
193
root -0.944537 18.2468 5.70714 2.12941 2.0295 -6.21687
lowerback 7.33211 1.2485 -0.532829
upperback -0.370844 1.55851 -1.27692
thorax -4.47621 0.769157 -1.19635
lowerneck -15.7135 -1.33371 -2.63319
upperneck 29.5928 -1.01779 -0.226471
head 12.4159 -0.773081 0.215084
rclavicle -5.26779e-015 -4.77083e-015
rhumerus -9.97759 22.8087 -75.9226
rradius 96.4446
rwrist -9.90428
rhand -5.21552 -38.148
rfingers 7.12502
rthumb 20.5863 -67.0764
lclavicle -5.26779e-015 -4.77083e-015
lhumerus -4.01551 -32.7591 89.4325
lradius 89.5784
lwrist 24.3257
lhand -23.5176 -30.2096
lfingers 7.12502
lthumb 2.94327 -0.250173
rfemur 0 0 0
rtibia 0
rfoot 0 0
rtoes 0
lfemur 14.7979 -8.28525 -10.1178
ltibia -19.9349
lfoot -0.858524 18.5775
ltoes -10.322
194
root -0.94028 18.2464 5.69649 2.06193 1.76249 -6.26061
lowerback 7.4176 1.22514 -0.483099
upperback -0.348253 1.53346 -1.21935
thorax -4.50146 0.756153 -1.16367
lowerneck -15.6796 -1.28128 -2.49226
upperneck 29.5293 -0.934846 -0.393861
head 12.3801 -0.742655 0.140068
rclavicle 2.70347e-014 -4.77083e-015
rhumerus -10.5689 23.3922 -77.6577
rradius 96.2859
rwrist -8.46735
rhand -5.15776 -37.9954
rfingers 7.12502
rthumb 20.6418 -66.9178
lclavicle 2.70347e-014 -4.77083e-015
lhumerus -4.12911 -32.526 89.6086
lradius 89.6973
lwrist 25.0196
lhand -23.5428 -29.8496
lfingers 7.12502
lthumb 2.91888 0.110154
rfemur 0 0 0
rtibia 0
rfoot 0 0
rtoes 0
lfemur 14.8897 -8.2181 -10.1119
ltibia -19.8757
lfoot -0.979924 18.7132
ltoes -10.2101
195
root -0.937256 18.246 5.68522 2.00246 1.43215 -6.22408
lowerback 7.47352 1.22618 -0.548753
upperback -0.328071 1.53014 -1.18255
thorax -4.51474 0.756387 -1.0894
lowerneck -15.6275 -1.22996 -2.2267
upperneck 29.4724 -0.86879 -0.632886
head 12.3422 -0.715228 0.0140751
rclavicle 1.26228e-014 7.95139e-015
rhumerus -10.8547 24.1761 -79.1847
rradius 95.6768
rwrist -7.35328
rhand -5.31865 -37.6229
rfingers 7.12502
rthumb 20.4872 -66.562
lclavicle 1.26228e-014 7.95139e-015
lhumerus -4.34172 -32.2606 89.7914
lradius 89.8284
lwrist 25.6484
lhand -23.5325 -29.3755
lfingers 7.12502
lthumb 2.92881 0.584165
rfemur 0 0 0
rtibia 0
rfoot 0 0
rtoes 0
lfemur 15.0004 -8.11644 -10.1957
ltibia -19.8394
lfoot -1.09415 18.8639
ltoes -9.98256
196
root -0.955372 18.2369 5.68871 1.75205 1.48191 -6.15585
lowerback 7.43153 1.1467 -0.98487
upperback -0.169597 1.39418 -1.05322
thorax -4.34178 0.700564 -0.691697
lowerneck -15.6549 -1.21934 -1.98154
upperneck 29.4528 -0.860936 -0.846427
head 12.3369 -0.712879 -0.108082
rclavicle 9.34288e-015 -1.43125e-014
rhumerus -10.939 24.9192 -80.6124
rradius 94.8427
rwrist -5.98656
rhand -6.01447 -37.2167
rfingers 7.12502
rthumb 19.8184 -66.2263
lclavicle 9.34288e-015 -1.43125e-014
lhumerus -4.46986 -31.9951 89.9925
lradius 89.8547
lwrist 26.1475
lhand -23.5302 -28.8935
lfingers 7.12502
lthumb 2.93104 1.0661
rfemur 0 0 0
rtibia 0
rfoot 0 0
rtoes 0
lfemur 15.2838 -7.69106 -10.1741
ltibia -19.8199
lfoot -0.995682 18.3269
ltoes -10.0425
197
root -0.956691 18.2331 5.68232 1.61631 1.27099 -6.13166
lowerback 7.4306 1.16062 -1.05875
upperback -0.0822341 1.40938 -1.00764
thorax -4.25333 0.710012 -0.603272
lowerneck -15.7425 -1.23546 -1.91668
upperneck 29.5242 -0.908702 -0.826522
head 12.3835 -0.725239 -0.120034
rclavicle -9.74045e-015 4.13472e-014
rhumerus -10.644 26.0581 -81.4669
rradius 93.6866
rwrist -4.34499
rhand -7.67693 -37.0591
rfingers 7.12502
rthumb 18.2197 -66.2258
lclavicle -9.74045e-015 4.13472e-014
lhumerus -4.51887 -31.8119 90.2232
lradius 89.8043
lwrist 26.7095
lhand -23.5572 -28.2102
lfingers 7.12502
lthumb 2.90497 1.74975
rfemur 0 0 0
rtibia 0
rfoot 0 0
rtoes 0
lfemur 15.4717 -7.43936 -10.2021
ltibia -19.7989
lfoot -1.01468 18.2415
ltoes -9.9967
198
root -0.951991 18.2316 5.6719 1.54595 0.914554 -6.14679
lowerback 7.4133 1.23219 -0.96459
upperback -0.0379553 1.51448 -0.989326
thorax -4.19543 0.760228 -0.647503
lowerneck -15.8338 -1.26462 -2.02623
upperneck 29.6857 -0.995814 -0.573585
head 12.4705 -0.74425 -0.0198298
rclavicle -3.77691e-015 -4.77083e-015
rhumerus -10.3136 26.9989 -82.3182
rradius 92.3431
rwrist -1.90474
rhand -9.52413 -36.8586
rfingers 7.12502
rthumb 16.4419 -66.1818
lclavicle -3.77691e-015 -4.77083e-015
lhumerus -4.61592 -31.6462 90.4898
lradius 89.7961
lwrist 27.4613
lhand -23.494 -27.3845
lfingers 7.12502
lthumb 2.96606 2.5746
rfemur 0 0 0
rtibia 0
rfoot 0 0
rtoes 0
lfemur 15.6196 -7.33235 -10.2329
ltibia -19.7917
lfoot -1.11106 18.4428
ltoes -9.89289
199
root -0.947943 18.2312 5.66324 1.51915 0.619942 -6.15557
lowerback 7.31492 1.29402 -0.884138
upperback -0.00166587 1.60683 -0.96473
thorax -4.10064 0.80463 -0.674029
lowerneck -15.8394 -1.3215 -2.09207
upperneck 29.7868 -1.12678 -0.361312
head 12.5154 -0.782567 0.0518365
rclavicle 6.95746e-015 -1.90833e-014
rhumerus -10.2784 27.2429 -83.6618
rradius 91.0738
rwrist 1.31013
rhand -11.0618 -36.4113
rfingers 7.12502
rthumb 14.961 -65.8509
lclavicle 6.95746e-015 -1.90833e-014
lhumerus -4.74879 -31.4837 90.7709
lradius 89.8636
lwrist 28.7345
lhand -23.4152 -26.6235
lfingers 7.12502
lthumb 3.04215 3.33457
rfemur 0 0 0
rtibia 0
rfoot 0 0
rtoes 0
lfemur 15.716 -7.30719 -10.2669
ltibia -19.7895
lfoot -1.20361 18.6959
ltoes -9.82226
200
root -0.94444 18.2314 5.65756 1.53016 0.413416 -6.15162
lowerback 7.18333 1.34686 -0.808115
upperback 0.0037216 1.68649 -0.946751
thorax -4.01912 0.842906 -0.702916
lowerneck -15.7869 -1.38671 -2.0311
upperneck 29.8478 -1.25836 -0.310144
head 12.53 -0.827721 0.0407965
rclavicle 2.08724e-015 -1.90833e-014
rhumerus -10.253 26.4642 -84.9643
rradius 89.7007
rwrist 6.45272
rhand -9.05194 -35.8471
rfingers 7.12502
rthumb 16.8964 -65.1321
lclavicle 2.08724e-015 -1.90833e-014
lhumerus -4.92218 -31.3258 91.1257
lradius 89.9723
lwrist 30.5413
lhand -23.4295 -25.9698
lfingers 7.12502
lthumb 3.02827 3.98843
rfemur 0 0 0
rtibia 0
rfoot 0 0
rtoes 0
lfemur 15.7483 -7.22366 -10.297
ltibia -19.7839
lfoot -1.26845 18.8298
ltoes -9.99679
